solid OpenSCAD_Model
  facet normal 0.471396 0.881921 -0
    outer loop
      vertex 2.22228 3.32588 -2.45
      vertex 1.53073 3.69552 2.5
      vertex 2.22228 3.32588 2.5
    endloop
  endfacet
  facet normal 0.471396 0.881921 0
    outer loop
      vertex 1.53073 3.69552 2.5
      vertex 2.22228 3.32588 -2.45
      vertex 1.53073 3.69552 -2.45
    endloop
  endfacet
  facet normal -0.95694 0.290285 0
    outer loop
      vertex -3.92314 0.780361 -2.45
      vertex -3.69552 1.53073 2.5
      vertex -3.69552 1.53073 -2.45
    endloop
  endfacet
  facet normal -0.95694 0.290285 0
    outer loop
      vertex -3.69552 1.53073 2.5
      vertex -3.92314 0.780361 -2.45
      vertex -3.92314 0.780361 2.5
    endloop
  endfacet
  facet normal 0.995185 -0.0980179 0
    outer loop
      vertex 3.92314 -0.780361 2.5
      vertex 4 0 -2.45
      vertex 4 0 2.5
    endloop
  endfacet
  facet normal 0.995185 -0.0980179 0
    outer loop
      vertex 4 0 -2.45
      vertex 3.92314 -0.780361 2.5
      vertex 3.92314 -0.780361 -2.45
    endloop
  endfacet
  facet normal -0.290285 -0.95694 0
    outer loop
      vertex -1.53073 -3.69552 -2.45
      vertex -0.780361 -3.92314 2.5
      vertex -1.53073 -3.69552 2.5
    endloop
  endfacet
  facet normal -0.290285 -0.95694 -0
    outer loop
      vertex -0.780361 -3.92314 2.5
      vertex -1.53073 -3.69552 -2.45
      vertex -0.780361 -3.92314 -2.45
    endloop
  endfacet
  facet normal 0.0980179 0.995185 -0
    outer loop
      vertex 0.780361 3.92314 -2.45
      vertex 0 4 2.5
      vertex 0.780361 3.92314 2.5
    endloop
  endfacet
  facet normal 0.0980179 0.995185 0
    outer loop
      vertex 0 4 2.5
      vertex 0.780361 3.92314 -2.45
      vertex 0 4 -2.45
    endloop
  endfacet
  facet normal -0.290285 0.95694 0
    outer loop
      vertex -0.780361 3.92314 -2.45
      vertex -1.53073 3.69552 2.5
      vertex -0.780361 3.92314 2.5
    endloop
  endfacet
  facet normal -0.290285 0.95694 0
    outer loop
      vertex -1.53073 3.69552 2.5
      vertex -0.780361 3.92314 -2.45
      vertex -1.53073 3.69552 -2.45
    endloop
  endfacet
  facet normal -0.881921 0.471396 0
    outer loop
      vertex -3.69552 1.53073 -2.45
      vertex -3.32588 2.22228 2.5
      vertex -3.32588 2.22228 -2.45
    endloop
  endfacet
  facet normal -0.881921 0.471396 0
    outer loop
      vertex -3.32588 2.22228 2.5
      vertex -3.69552 1.53073 -2.45
      vertex -3.69552 1.53073 2.5
    endloop
  endfacet
  facet normal 0.881921 0.471396 0
    outer loop
      vertex 3.69552 1.53073 2.5
      vertex 3.32588 2.22228 -2.45
      vertex 3.32588 2.22228 2.5
    endloop
  endfacet
  facet normal 0.881921 0.471396 0
    outer loop
      vertex 3.32588 2.22228 -2.45
      vertex 3.69552 1.53073 2.5
      vertex 3.69552 1.53073 -2.45
    endloop
  endfacet
  facet normal 0.77301 0.634394 0
    outer loop
      vertex 3.32588 2.22228 2.5
      vertex 2.82843 2.82843 -2.45
      vertex 2.82843 2.82843 2.5
    endloop
  endfacet
  facet normal 0.77301 0.634394 0
    outer loop
      vertex 2.82843 2.82843 -2.45
      vertex 3.32588 2.22228 2.5
      vertex 3.32588 2.22228 -2.45
    endloop
  endfacet
  facet normal 0.634394 0.77301 -0
    outer loop
      vertex 2.82843 2.82843 -2.45
      vertex 2.22228 3.32588 2.5
      vertex 2.82843 2.82843 2.5
    endloop
  endfacet
  facet normal 0.634394 0.77301 0
    outer loop
      vertex 2.22228 3.32588 2.5
      vertex 2.82843 2.82843 -2.45
      vertex 2.22228 3.32588 -2.45
    endloop
  endfacet
  facet normal 0.290285 0.95694 -0
    outer loop
      vertex 1.53073 3.69552 -2.45
      vertex 0.780361 3.92314 2.5
      vertex 1.53073 3.69552 2.5
    endloop
  endfacet
  facet normal 0.290285 0.95694 0
    outer loop
      vertex 0.780361 3.92314 2.5
      vertex 1.53073 3.69552 -2.45
      vertex 0.780361 3.92314 -2.45
    endloop
  endfacet
  facet normal -0.995185 0.0980179 0
    outer loop
      vertex -4 0 -2.45
      vertex -3.92314 0.780361 2.5
      vertex -3.92314 0.780361 -2.45
    endloop
  endfacet
  facet normal -0.995185 0.0980179 0
    outer loop
      vertex -3.92314 0.780361 2.5
      vertex -4 0 -2.45
      vertex -4 0 2.5
    endloop
  endfacet
  facet normal -0.77301 0.634394 0
    outer loop
      vertex -3.32588 2.22228 -2.45
      vertex -2.82843 2.82843 2.5
      vertex -2.82843 2.82843 -2.45
    endloop
  endfacet
  facet normal -0.77301 0.634394 0
    outer loop
      vertex -2.82843 2.82843 2.5
      vertex -3.32588 2.22228 -2.45
      vertex -3.32588 2.22228 2.5
    endloop
  endfacet
  facet normal -0.471396 0.881921 0
    outer loop
      vertex -1.53073 3.69552 -2.45
      vertex -2.22228 3.32588 2.5
      vertex -1.53073 3.69552 2.5
    endloop
  endfacet
  facet normal -0.471396 0.881921 0
    outer loop
      vertex -2.22228 3.32588 2.5
      vertex -1.53073 3.69552 -2.45
      vertex -2.22228 3.32588 -2.45
    endloop
  endfacet
  facet normal -0.0980179 0.995185 0
    outer loop
      vertex 0 4 -2.45
      vertex -0.780361 3.92314 2.5
      vertex 0 4 2.5
    endloop
  endfacet
  facet normal -0.0980179 0.995185 0
    outer loop
      vertex -0.780361 3.92314 2.5
      vertex 0 4 -2.45
      vertex -0.780361 3.92314 -2.45
    endloop
  endfacet
  facet normal -0.634394 0.77301 0
    outer loop
      vertex -2.22228 3.32588 -2.45
      vertex -2.82843 2.82843 2.5
      vertex -2.22228 3.32588 2.5
    endloop
  endfacet
  facet normal -0.634394 0.77301 0
    outer loop
      vertex -2.82843 2.82843 2.5
      vertex -2.22228 3.32588 -2.45
      vertex -2.82843 2.82843 -2.45
    endloop
  endfacet
  facet normal 0.995185 0.0980179 0
    outer loop
      vertex 4 0 2.5
      vertex 3.92314 0.780361 -2.45
      vertex 3.92314 0.780361 2.5
    endloop
  endfacet
  facet normal 0.995185 0.0980179 0
    outer loop
      vertex 3.92314 0.780361 -2.45
      vertex 4 0 2.5
      vertex 4 0 -2.45
    endloop
  endfacet
  facet normal 0.0980179 -0.995185 0
    outer loop
      vertex 0 -4 -2.45
      vertex 0.780361 -3.92314 2.5
      vertex 0 -4 2.5
    endloop
  endfacet
  facet normal 0.0980179 -0.995185 0
    outer loop
      vertex 0.780361 -3.92314 2.5
      vertex 0 -4 -2.45
      vertex 0.780361 -3.92314 -2.45
    endloop
  endfacet
  facet normal 0.471396 -0.881921 0
    outer loop
      vertex 1.53073 -3.69552 -2.45
      vertex 2.22228 -3.32588 2.5
      vertex 1.53073 -3.69552 2.5
    endloop
  endfacet
  facet normal 0.471396 -0.881921 0
    outer loop
      vertex 2.22228 -3.32588 2.5
      vertex 1.53073 -3.69552 -2.45
      vertex 2.22228 -3.32588 -2.45
    endloop
  endfacet
  facet normal 0.634394 -0.77301 0
    outer loop
      vertex 2.22228 -3.32588 -2.45
      vertex 2.82843 -2.82843 2.5
      vertex 2.22228 -3.32588 2.5
    endloop
  endfacet
  facet normal 0.634394 -0.77301 0
    outer loop
      vertex 2.82843 -2.82843 2.5
      vertex 2.22228 -3.32588 -2.45
      vertex 2.82843 -2.82843 -2.45
    endloop
  endfacet
  facet normal 0.881921 -0.471396 0
    outer loop
      vertex 3.32588 -2.22228 2.5
      vertex 3.69552 -1.53073 -2.45
      vertex 3.69552 -1.53073 2.5
    endloop
  endfacet
  facet normal 0.881921 -0.471396 0
    outer loop
      vertex 3.69552 -1.53073 -2.45
      vertex 3.32588 -2.22228 2.5
      vertex 3.32588 -2.22228 -2.45
    endloop
  endfacet
  facet normal -0.0980179 -0.995185 0
    outer loop
      vertex -0.780361 -3.92314 -2.45
      vertex 0 -4 2.5
      vertex -0.780361 -3.92314 2.5
    endloop
  endfacet
  facet normal -0.0980179 -0.995185 -0
    outer loop
      vertex 0 -4 2.5
      vertex -0.780361 -3.92314 -2.45
      vertex 0 -4 -2.45
    endloop
  endfacet
  facet normal -0.634394 -0.77301 0
    outer loop
      vertex -2.82843 -2.82843 -2.45
      vertex -2.22228 -3.32588 2.5
      vertex -2.82843 -2.82843 2.5
    endloop
  endfacet
  facet normal -0.634394 -0.77301 -0
    outer loop
      vertex -2.22228 -3.32588 2.5
      vertex -2.82843 -2.82843 -2.45
      vertex -2.22228 -3.32588 -2.45
    endloop
  endfacet
  facet normal -0.881921 -0.471396 0
    outer loop
      vertex -3.32588 -2.22228 -2.45
      vertex -3.69552 -1.53073 2.5
      vertex -3.69552 -1.53073 -2.45
    endloop
  endfacet
  facet normal -0.881921 -0.471396 0
    outer loop
      vertex -3.69552 -1.53073 2.5
      vertex -3.32588 -2.22228 -2.45
      vertex -3.32588 -2.22228 2.5
    endloop
  endfacet
  facet normal -0.995185 -0.0980179 0
    outer loop
      vertex -3.92314 -0.780361 -2.45
      vertex -4 0 2.5
      vertex -4 0 -2.45
    endloop
  endfacet
  facet normal -0.995185 -0.0980179 0
    outer loop
      vertex -4 0 2.5
      vertex -3.92314 -0.780361 -2.45
      vertex -3.92314 -0.780361 2.5
    endloop
  endfacet
  facet normal -0.77301 -0.634394 0
    outer loop
      vertex -2.82843 -2.82843 -2.45
      vertex -3.32588 -2.22228 2.5
      vertex -3.32588 -2.22228 -2.45
    endloop
  endfacet
  facet normal -0.77301 -0.634394 0
    outer loop
      vertex -3.32588 -2.22228 2.5
      vertex -2.82843 -2.82843 -2.45
      vertex -2.82843 -2.82843 2.5
    endloop
  endfacet
  facet normal 0.95694 0.290285 0
    outer loop
      vertex 3.92314 0.780361 2.5
      vertex 3.69552 1.53073 -2.45
      vertex 3.69552 1.53073 2.5
    endloop
  endfacet
  facet normal 0.95694 0.290285 0
    outer loop
      vertex 3.69552 1.53073 -2.45
      vertex 3.92314 0.780361 2.5
      vertex 3.92314 0.780361 -2.45
    endloop
  endfacet
  facet normal 0 0 1
    outer loop
      vertex 3.92314 0.780361 2.5
      vertex 3.92314 -0.780361 2.5
      vertex 4 0 2.5
    endloop
  endfacet
  facet normal 0 0 1
    outer loop
      vertex 3.69552 1.53073 2.5
      vertex 3.92314 -0.780361 2.5
      vertex 3.92314 0.780361 2.5
    endloop
  endfacet
  facet normal 0 0 1
    outer loop
      vertex 3.69552 1.53073 2.5
      vertex 3.69552 -1.53073 2.5
      vertex 3.92314 -0.780361 2.5
    endloop
  endfacet
  facet normal 0 0 1
    outer loop
      vertex 3.32588 2.22228 2.5
      vertex 3.69552 -1.53073 2.5
      vertex 3.69552 1.53073 2.5
    endloop
  endfacet
  facet normal 0 0 1
    outer loop
      vertex 3.32588 2.22228 2.5
      vertex 3.32588 -2.22228 2.5
      vertex 3.69552 -1.53073 2.5
    endloop
  endfacet
  facet normal 0 0 1
    outer loop
      vertex 2.82843 2.82843 2.5
      vertex 3.32588 -2.22228 2.5
      vertex 3.32588 2.22228 2.5
    endloop
  endfacet
  facet normal 0 0 1
    outer loop
      vertex 2.82843 2.82843 2.5
      vertex 2.82843 -2.82843 2.5
      vertex 3.32588 -2.22228 2.5
    endloop
  endfacet
  facet normal 0 0 1
    outer loop
      vertex 2.22228 3.32588 2.5
      vertex 2.82843 -2.82843 2.5
      vertex 2.82843 2.82843 2.5
    endloop
  endfacet
  facet normal 0 0 1
    outer loop
      vertex 2.22228 3.32588 2.5
      vertex 2.22228 -3.32588 2.5
      vertex 2.82843 -2.82843 2.5
    endloop
  endfacet
  facet normal 0 0 1
    outer loop
      vertex 1.53073 3.69552 2.5
      vertex 2.22228 -3.32588 2.5
      vertex 2.22228 3.32588 2.5
    endloop
  endfacet
  facet normal 0 0 1
    outer loop
      vertex 1.53073 3.69552 2.5
      vertex 1.53073 -3.69552 2.5
      vertex 2.22228 -3.32588 2.5
    endloop
  endfacet
  facet normal 0 0 1
    outer loop
      vertex 0.780361 3.92314 2.5
      vertex 1.53073 -3.69552 2.5
      vertex 1.53073 3.69552 2.5
    endloop
  endfacet
  facet normal 0 0 1
    outer loop
      vertex 0.780361 3.92314 2.5
      vertex 0.780361 -3.92314 2.5
      vertex 1.53073 -3.69552 2.5
    endloop
  endfacet
  facet normal 0 0 1
    outer loop
      vertex 0 4 2.5
      vertex 0.780361 -3.92314 2.5
      vertex 0.780361 3.92314 2.5
    endloop
  endfacet
  facet normal 0 0 1
    outer loop
      vertex 0 4 2.5
      vertex 0 -4 2.5
      vertex 0.780361 -3.92314 2.5
    endloop
  endfacet
  facet normal -0 0 1
    outer loop
      vertex -0.780361 3.92314 2.5
      vertex 0 -4 2.5
      vertex 0 4 2.5
    endloop
  endfacet
  facet normal 0 0 1
    outer loop
      vertex -0.780361 3.92314 2.5
      vertex -0.780361 -3.92314 2.5
      vertex 0 -4 2.5
    endloop
  endfacet
  facet normal -0 0 1
    outer loop
      vertex -1.53073 3.69552 2.5
      vertex -0.780361 -3.92314 2.5
      vertex -0.780361 3.92314 2.5
    endloop
  endfacet
  facet normal 0 0 1
    outer loop
      vertex -1.53073 3.69552 2.5
      vertex -1.53073 -3.69552 2.5
      vertex -0.780361 -3.92314 2.5
    endloop
  endfacet
  facet normal -0 0 1
    outer loop
      vertex -2.22228 3.32588 2.5
      vertex -1.53073 -3.69552 2.5
      vertex -1.53073 3.69552 2.5
    endloop
  endfacet
  facet normal 0 0 1
    outer loop
      vertex -2.22228 3.32588 2.5
      vertex -2.22228 -3.32588 2.5
      vertex -1.53073 -3.69552 2.5
    endloop
  endfacet
  facet normal -0 0 1
    outer loop
      vertex -2.82843 2.82843 2.5
      vertex -2.22228 -3.32588 2.5
      vertex -2.22228 3.32588 2.5
    endloop
  endfacet
  facet normal 0 0 1
    outer loop
      vertex -2.82843 2.82843 2.5
      vertex -2.82843 -2.82843 2.5
      vertex -2.22228 -3.32588 2.5
    endloop
  endfacet
  facet normal -0 0 1
    outer loop
      vertex -3.32588 2.22228 2.5
      vertex -2.82843 -2.82843 2.5
      vertex -2.82843 2.82843 2.5
    endloop
  endfacet
  facet normal 0 0 1
    outer loop
      vertex -3.32588 2.22228 2.5
      vertex -3.32588 -2.22228 2.5
      vertex -2.82843 -2.82843 2.5
    endloop
  endfacet
  facet normal -0 0 1
    outer loop
      vertex -3.69552 1.53073 2.5
      vertex -3.32588 -2.22228 2.5
      vertex -3.32588 2.22228 2.5
    endloop
  endfacet
  facet normal 0 0 1
    outer loop
      vertex -3.69552 1.53073 2.5
      vertex -3.69552 -1.53073 2.5
      vertex -3.32588 -2.22228 2.5
    endloop
  endfacet
  facet normal -0 0 1
    outer loop
      vertex -3.92314 0.780361 2.5
      vertex -3.69552 -1.53073 2.5
      vertex -3.69552 1.53073 2.5
    endloop
  endfacet
  facet normal 0 0 1
    outer loop
      vertex -3.92314 0.780361 2.5
      vertex -3.92314 -0.780361 2.5
      vertex -3.69552 -1.53073 2.5
    endloop
  endfacet
  facet normal 0 -0 1
    outer loop
      vertex -3.92314 -0.780361 2.5
      vertex -3.92314 0.780361 2.5
      vertex -4 0 2.5
    endloop
  endfacet
  facet normal 0.290285 -0.95694 0
    outer loop
      vertex 0.780361 -3.92314 -2.45
      vertex 1.53073 -3.69552 2.5
      vertex 0.780361 -3.92314 2.5
    endloop
  endfacet
  facet normal 0.290285 -0.95694 0
    outer loop
      vertex 1.53073 -3.69552 2.5
      vertex 0.780361 -3.92314 -2.45
      vertex 1.53073 -3.69552 -2.45
    endloop
  endfacet
  facet normal 0.77301 -0.634394 0
    outer loop
      vertex 2.82843 -2.82843 2.5
      vertex 3.32588 -2.22228 -2.45
      vertex 3.32588 -2.22228 2.5
    endloop
  endfacet
  facet normal 0.77301 -0.634394 0
    outer loop
      vertex 3.32588 -2.22228 -2.45
      vertex 2.82843 -2.82843 2.5
      vertex 2.82843 -2.82843 -2.45
    endloop
  endfacet
  facet normal 0.95694 -0.290285 0
    outer loop
      vertex 3.69552 -1.53073 2.5
      vertex 3.92314 -0.780361 -2.45
      vertex 3.92314 -0.780361 2.5
    endloop
  endfacet
  facet normal 0.95694 -0.290285 0
    outer loop
      vertex 3.92314 -0.780361 -2.45
      vertex 3.69552 -1.53073 2.5
      vertex 3.69552 -1.53073 -2.45
    endloop
  endfacet
  facet normal -0.471396 -0.881921 0
    outer loop
      vertex -2.22228 -3.32588 -2.45
      vertex -1.53073 -3.69552 2.5
      vertex -2.22228 -3.32588 2.5
    endloop
  endfacet
  facet normal -0.471396 -0.881921 -0
    outer loop
      vertex -1.53073 -3.69552 2.5
      vertex -2.22228 -3.32588 -2.45
      vertex -1.53073 -3.69552 -2.45
    endloop
  endfacet
  facet normal -0.95694 -0.290285 0
    outer loop
      vertex -3.69552 -1.53073 -2.45
      vertex -3.92314 -0.780361 2.5
      vertex -3.92314 -0.780361 -2.45
    endloop
  endfacet
  facet normal -0.95694 -0.290285 0
    outer loop
      vertex -3.92314 -0.780361 2.5
      vertex -3.69552 -1.53073 -2.45
      vertex -3.69552 -1.53073 2.5
    endloop
  endfacet
  facet normal 0.471396 0.881922 -0
    outer loop
      vertex 2.91674 4.36522 -3.95
      vertex 2.00909 4.85037 -2.45
      vertex 2.91674 4.36522 -2.45
    endloop
  endfacet
  facet normal 0.471396 0.881922 0
    outer loop
      vertex 2.00909 4.85037 -2.45
      vertex 2.91674 4.36522 -3.95
      vertex 2.00909 4.85037 -3.95
    endloop
  endfacet
  facet normal 0.995185 -0.0980177 0
    outer loop
      vertex 5.14912 -1.02422 -2.45
      vertex 5.25 0 -3.95
      vertex 5.25 0 -2.45
    endloop
  endfacet
  facet normal 0.995185 -0.0980177 0
    outer loop
      vertex 5.25 0 -3.95
      vertex 5.14912 -1.02422 -2.45
      vertex 5.14912 -1.02422 -3.95
    endloop
  endfacet
  facet normal -0.290285 -0.95694 0
    outer loop
      vertex -2.00909 -4.85037 -3.95
      vertex -1.02422 -5.14912 -2.45
      vertex -2.00909 -4.85037 -2.45
    endloop
  endfacet
  facet normal -0.290285 -0.95694 -0
    outer loop
      vertex -1.02422 -5.14912 -2.45
      vertex -2.00909 -4.85037 -3.95
      vertex -1.02422 -5.14912 -3.95
    endloop
  endfacet
  facet normal 0.0980177 0.995185 -0
    outer loop
      vertex 1.02422 5.14912 -3.95
      vertex 0 5.25 -2.45
      vertex 1.02422 5.14912 -2.45
    endloop
  endfacet
  facet normal 0.0980177 0.995185 0
    outer loop
      vertex 0 5.25 -2.45
      vertex 1.02422 5.14912 -3.95
      vertex 0 5.25 -3.95
    endloop
  endfacet
  facet normal -0.290285 0.95694 0
    outer loop
      vertex -1.02422 5.14912 -3.95
      vertex -2.00909 4.85037 -2.45
      vertex -1.02422 5.14912 -2.45
    endloop
  endfacet
  facet normal -0.290285 0.95694 0
    outer loop
      vertex -2.00909 4.85037 -2.45
      vertex -1.02422 5.14912 -3.95
      vertex -2.00909 4.85037 -3.95
    endloop
  endfacet
  facet normal -0.881922 0.471396 0
    outer loop
      vertex -4.85037 2.00909 -3.95
      vertex -4.36522 2.91674 -2.45
      vertex -4.36522 2.91674 -3.95
    endloop
  endfacet
  facet normal -0.881922 0.471396 0
    outer loop
      vertex -4.36522 2.91674 -2.45
      vertex -4.85037 2.00909 -3.95
      vertex -4.85037 2.00909 -2.45
    endloop
  endfacet
  facet normal 0.95694 0.290285 0
    outer loop
      vertex 5.14912 1.02422 -2.45
      vertex 4.85037 2.00909 -3.95
      vertex 4.85037 2.00909 -2.45
    endloop
  endfacet
  facet normal 0.95694 0.290285 0
    outer loop
      vertex 4.85037 2.00909 -3.95
      vertex 5.14912 1.02422 -2.45
      vertex 5.14912 1.02422 -3.95
    endloop
  endfacet
  facet normal 0.881922 0.471396 0
    outer loop
      vertex 4.85037 2.00909 -2.45
      vertex 4.36522 2.91674 -3.95
      vertex 4.36522 2.91674 -2.45
    endloop
  endfacet
  facet normal 0.881922 0.471396 0
    outer loop
      vertex 4.36522 2.91674 -3.95
      vertex 4.85037 2.00909 -2.45
      vertex 4.85037 2.00909 -3.95
    endloop
  endfacet
  facet normal 0.77301 0.634394 0
    outer loop
      vertex 4.36522 2.91674 -2.45
      vertex 3.71231 3.71231 -3.95
      vertex 3.71231 3.71231 -2.45
    endloop
  endfacet
  facet normal 0.77301 0.634394 0
    outer loop
      vertex 3.71231 3.71231 -3.95
      vertex 4.36522 2.91674 -2.45
      vertex 4.36522 2.91674 -3.95
    endloop
  endfacet
  facet normal 0.634394 0.77301 -0
    outer loop
      vertex 3.71231 3.71231 -3.95
      vertex 2.91674 4.36522 -2.45
      vertex 3.71231 3.71231 -2.45
    endloop
  endfacet
  facet normal 0.634394 0.77301 0
    outer loop
      vertex 2.91674 4.36522 -2.45
      vertex 3.71231 3.71231 -3.95
      vertex 2.91674 4.36522 -3.95
    endloop
  endfacet
  facet normal 0.290285 0.95694 -0
    outer loop
      vertex 2.00909 4.85037 -3.95
      vertex 1.02422 5.14912 -2.45
      vertex 2.00909 4.85037 -2.45
    endloop
  endfacet
  facet normal 0.290285 0.95694 0
    outer loop
      vertex 1.02422 5.14912 -2.45
      vertex 2.00909 4.85037 -3.95
      vertex 1.02422 5.14912 -3.95
    endloop
  endfacet
  facet normal -0.995185 0.0980177 0
    outer loop
      vertex -5.25 0 -3.95
      vertex -5.14912 1.02422 -2.45
      vertex -5.14912 1.02422 -3.95
    endloop
  endfacet
  facet normal -0.995185 0.0980177 0
    outer loop
      vertex -5.14912 1.02422 -2.45
      vertex -5.25 0 -3.95
      vertex -5.25 0 -2.45
    endloop
  endfacet
  facet normal -0.77301 0.634394 0
    outer loop
      vertex -4.36522 2.91674 -3.95
      vertex -3.71231 3.71231 -2.45
      vertex -3.71231 3.71231 -3.95
    endloop
  endfacet
  facet normal -0.77301 0.634394 0
    outer loop
      vertex -3.71231 3.71231 -2.45
      vertex -4.36522 2.91674 -3.95
      vertex -4.36522 2.91674 -2.45
    endloop
  endfacet
  facet normal -0.471396 0.881922 0
    outer loop
      vertex -2.00909 4.85037 -3.95
      vertex -2.91674 4.36522 -2.45
      vertex -2.00909 4.85037 -2.45
    endloop
  endfacet
  facet normal -0.471396 0.881922 0
    outer loop
      vertex -2.91674 4.36522 -2.45
      vertex -2.00909 4.85037 -3.95
      vertex -2.91674 4.36522 -3.95
    endloop
  endfacet
  facet normal -0.0980177 0.995185 0
    outer loop
      vertex 0 5.25 -3.95
      vertex -1.02422 5.14912 -2.45
      vertex 0 5.25 -2.45
    endloop
  endfacet
  facet normal -0.0980177 0.995185 0
    outer loop
      vertex -1.02422 5.14912 -2.45
      vertex 0 5.25 -3.95
      vertex -1.02422 5.14912 -3.95
    endloop
  endfacet
  facet normal -0.634394 0.77301 0
    outer loop
      vertex -2.91674 4.36522 -3.95
      vertex -3.71231 3.71231 -2.45
      vertex -2.91674 4.36522 -2.45
    endloop
  endfacet
  facet normal -0.634394 0.77301 0
    outer loop
      vertex -3.71231 3.71231 -2.45
      vertex -2.91674 4.36522 -3.95
      vertex -3.71231 3.71231 -3.95
    endloop
  endfacet
  facet normal 0.995185 0.0980177 0
    outer loop
      vertex 5.25 0 -2.45
      vertex 5.14912 1.02422 -3.95
      vertex 5.14912 1.02422 -2.45
    endloop
  endfacet
  facet normal 0.995185 0.0980177 0
    outer loop
      vertex 5.14912 1.02422 -3.95
      vertex 5.25 0 -2.45
      vertex 5.25 0 -3.95
    endloop
  endfacet
  facet normal 0.0980177 -0.995185 0
    outer loop
      vertex 0 -5.25 -3.95
      vertex 1.02422 -5.14912 -2.45
      vertex 0 -5.25 -2.45
    endloop
  endfacet
  facet normal 0.0980177 -0.995185 0
    outer loop
      vertex 1.02422 -5.14912 -2.45
      vertex 0 -5.25 -3.95
      vertex 1.02422 -5.14912 -3.95
    endloop
  endfacet
  facet normal 0.471396 -0.881922 0
    outer loop
      vertex 2.00909 -4.85037 -3.95
      vertex 2.91674 -4.36522 -2.45
      vertex 2.00909 -4.85037 -2.45
    endloop
  endfacet
  facet normal 0.471396 -0.881922 0
    outer loop
      vertex 2.91674 -4.36522 -2.45
      vertex 2.00909 -4.85037 -3.95
      vertex 2.91674 -4.36522 -3.95
    endloop
  endfacet
  facet normal 0.634394 -0.77301 0
    outer loop
      vertex 2.91674 -4.36522 -3.95
      vertex 3.71231 -3.71231 -2.45
      vertex 2.91674 -4.36522 -2.45
    endloop
  endfacet
  facet normal 0.634394 -0.77301 0
    outer loop
      vertex 3.71231 -3.71231 -2.45
      vertex 2.91674 -4.36522 -3.95
      vertex 3.71231 -3.71231 -3.95
    endloop
  endfacet
  facet normal 0.881922 -0.471396 0
    outer loop
      vertex 4.36522 -2.91674 -2.45
      vertex 4.85037 -2.00909 -3.95
      vertex 4.85037 -2.00909 -2.45
    endloop
  endfacet
  facet normal 0.881922 -0.471396 0
    outer loop
      vertex 4.85037 -2.00909 -3.95
      vertex 4.36522 -2.91674 -2.45
      vertex 4.36522 -2.91674 -3.95
    endloop
  endfacet
  facet normal -0.0980177 -0.995185 0
    outer loop
      vertex -1.02422 -5.14912 -3.95
      vertex 0 -5.25 -2.45
      vertex -1.02422 -5.14912 -2.45
    endloop
  endfacet
  facet normal -0.0980177 -0.995185 -0
    outer loop
      vertex 0 -5.25 -2.45
      vertex -1.02422 -5.14912 -3.95
      vertex 0 -5.25 -3.95
    endloop
  endfacet
  facet normal -0.634394 -0.77301 0
    outer loop
      vertex -3.71231 -3.71231 -3.95
      vertex -2.91674 -4.36522 -2.45
      vertex -3.71231 -3.71231 -2.45
    endloop
  endfacet
  facet normal -0.634394 -0.77301 -0
    outer loop
      vertex -2.91674 -4.36522 -2.45
      vertex -3.71231 -3.71231 -3.95
      vertex -2.91674 -4.36522 -3.95
    endloop
  endfacet
  facet normal -0.881922 -0.471396 0
    outer loop
      vertex -4.36522 -2.91674 -3.95
      vertex -4.85037 -2.00909 -2.45
      vertex -4.85037 -2.00909 -3.95
    endloop
  endfacet
  facet normal -0.881922 -0.471396 0
    outer loop
      vertex -4.85037 -2.00909 -2.45
      vertex -4.36522 -2.91674 -3.95
      vertex -4.36522 -2.91674 -2.45
    endloop
  endfacet
  facet normal -0.995185 -0.0980177 0
    outer loop
      vertex -5.14912 -1.02422 -3.95
      vertex -5.25 0 -2.45
      vertex -5.25 0 -3.95
    endloop
  endfacet
  facet normal -0.995185 -0.0980177 0
    outer loop
      vertex -5.25 0 -2.45
      vertex -5.14912 -1.02422 -3.95
      vertex -5.14912 -1.02422 -2.45
    endloop
  endfacet
  facet normal 0 0 -1
    outer loop
      vertex 5.14912 -1.02422 -3.95
      vertex 5.14912 1.02422 -3.95
      vertex 5.25 0 -3.95
    endloop
  endfacet
  facet normal 0 0 -1
    outer loop
      vertex 4.85037 -2.00909 -3.95
      vertex 5.14912 1.02422 -3.95
      vertex 5.14912 -1.02422 -3.95
    endloop
  endfacet
  facet normal 0 0 -1
    outer loop
      vertex 4.85037 -2.00909 -3.95
      vertex 4.85037 2.00909 -3.95
      vertex 5.14912 1.02422 -3.95
    endloop
  endfacet
  facet normal 0 0 -1
    outer loop
      vertex 4.36522 -2.91674 -3.95
      vertex 4.85037 2.00909 -3.95
      vertex 4.85037 -2.00909 -3.95
    endloop
  endfacet
  facet normal 0 0 -1
    outer loop
      vertex 4.36522 -2.91674 -3.95
      vertex 4.36522 2.91674 -3.95
      vertex 4.85037 2.00909 -3.95
    endloop
  endfacet
  facet normal 0 0 -1
    outer loop
      vertex 3.71231 -3.71231 -3.95
      vertex 4.36522 2.91674 -3.95
      vertex 4.36522 -2.91674 -3.95
    endloop
  endfacet
  facet normal 0 0 -1
    outer loop
      vertex 3.71231 -3.71231 -3.95
      vertex 3.71231 3.71231 -3.95
      vertex 4.36522 2.91674 -3.95
    endloop
  endfacet
  facet normal 0 0 -1
    outer loop
      vertex 2.91674 -4.36522 -3.95
      vertex 3.71231 3.71231 -3.95
      vertex 3.71231 -3.71231 -3.95
    endloop
  endfacet
  facet normal 0 0 -1
    outer loop
      vertex 2.91674 -4.36522 -3.95
      vertex 2.91674 4.36522 -3.95
      vertex 3.71231 3.71231 -3.95
    endloop
  endfacet
  facet normal 0 0 -1
    outer loop
      vertex 2.00909 -4.85037 -3.95
      vertex 2.91674 4.36522 -3.95
      vertex 2.91674 -4.36522 -3.95
    endloop
  endfacet
  facet normal 0 0 -1
    outer loop
      vertex 2.00909 -4.85037 -3.95
      vertex 2.00909 4.85037 -3.95
      vertex 2.91674 4.36522 -3.95
    endloop
  endfacet
  facet normal 0 0 -1
    outer loop
      vertex 1.02422 -5.14912 -3.95
      vertex 2.00909 4.85037 -3.95
      vertex 2.00909 -4.85037 -3.95
    endloop
  endfacet
  facet normal 0 0 -1
    outer loop
      vertex 1.02422 -5.14912 -3.95
      vertex 1.02422 5.14912 -3.95
      vertex 2.00909 4.85037 -3.95
    endloop
  endfacet
  facet normal 0 0 -1
    outer loop
      vertex 0 -5.25 -3.95
      vertex 1.02422 5.14912 -3.95
      vertex 1.02422 -5.14912 -3.95
    endloop
  endfacet
  facet normal 0 0 -1
    outer loop
      vertex 0 -5.25 -3.95
      vertex 0 5.25 -3.95
      vertex 1.02422 5.14912 -3.95
    endloop
  endfacet
  facet normal 0 0 -1
    outer loop
      vertex -1.02422 -5.14912 -3.95
      vertex 0 5.25 -3.95
      vertex 0 -5.25 -3.95
    endloop
  endfacet
  facet normal 0 0 -1
    outer loop
      vertex -1.02422 -5.14912 -3.95
      vertex -1.02422 5.14912 -3.95
      vertex 0 5.25 -3.95
    endloop
  endfacet
  facet normal 0 0 -1
    outer loop
      vertex -2.00909 -4.85037 -3.95
      vertex -1.02422 5.14912 -3.95
      vertex -1.02422 -5.14912 -3.95
    endloop
  endfacet
  facet normal 0 0 -1
    outer loop
      vertex -2.00909 -4.85037 -3.95
      vertex -2.00909 4.85037 -3.95
      vertex -1.02422 5.14912 -3.95
    endloop
  endfacet
  facet normal 0 0 -1
    outer loop
      vertex -2.91674 -4.36522 -3.95
      vertex -2.00909 4.85037 -3.95
      vertex -2.00909 -4.85037 -3.95
    endloop
  endfacet
  facet normal 0 0 -1
    outer loop
      vertex -2.91674 -4.36522 -3.95
      vertex -2.91674 4.36522 -3.95
      vertex -2.00909 4.85037 -3.95
    endloop
  endfacet
  facet normal 0 0 -1
    outer loop
      vertex -3.71231 -3.71231 -3.95
      vertex -2.91674 4.36522 -3.95
      vertex -2.91674 -4.36522 -3.95
    endloop
  endfacet
  facet normal 0 0 -1
    outer loop
      vertex -3.71231 -3.71231 -3.95
      vertex -3.71231 3.71231 -3.95
      vertex -2.91674 4.36522 -3.95
    endloop
  endfacet
  facet normal 0 0 -1
    outer loop
      vertex -4.36522 -2.91674 -3.95
      vertex -3.71231 3.71231 -3.95
      vertex -3.71231 -3.71231 -3.95
    endloop
  endfacet
  facet normal 0 0 -1
    outer loop
      vertex -4.36522 -2.91674 -3.95
      vertex -4.36522 2.91674 -3.95
      vertex -3.71231 3.71231 -3.95
    endloop
  endfacet
  facet normal 0 0 -1
    outer loop
      vertex -4.85037 -2.00909 -3.95
      vertex -4.36522 2.91674 -3.95
      vertex -4.36522 -2.91674 -3.95
    endloop
  endfacet
  facet normal 0 0 -1
    outer loop
      vertex -4.85037 -2.00909 -3.95
      vertex -4.85037 2.00909 -3.95
      vertex -4.36522 2.91674 -3.95
    endloop
  endfacet
  facet normal 0 0 -1
    outer loop
      vertex -5.14912 -1.02422 -3.95
      vertex -4.85037 2.00909 -3.95
      vertex -4.85037 -2.00909 -3.95
    endloop
  endfacet
  facet normal 0 0 -1
    outer loop
      vertex -5.14912 -1.02422 -3.95
      vertex -5.14912 1.02422 -3.95
      vertex -4.85037 2.00909 -3.95
    endloop
  endfacet
  facet normal 0 -0 -1
    outer loop
      vertex -5.14912 1.02422 -3.95
      vertex -5.14912 -1.02422 -3.95
      vertex -5.25 0 -3.95
    endloop
  endfacet
  facet normal 0 0 1
    outer loop
      vertex 4 0 -2.45
      vertex 5.25 0 -2.45
      vertex 5.14912 1.02422 -2.45
    endloop
  endfacet
  facet normal 0 0 1
    outer loop
      vertex 3.92314 0.780361 -2.45
      vertex 5.14912 1.02422 -2.45
      vertex 4.85037 2.00909 -2.45
    endloop
  endfacet
  facet normal 0 0 1
    outer loop
      vertex 5.25 0 -2.45
      vertex 4 0 -2.45
      vertex 5.14912 -1.02422 -2.45
    endloop
  endfacet
  facet normal 0 0 1
    outer loop
      vertex 3.69552 1.53073 -2.45
      vertex 4.85037 2.00909 -2.45
      vertex 4.36522 2.91674 -2.45
    endloop
  endfacet
  facet normal -0 0 1
    outer loop
      vertex 3.92314 -0.780361 -2.45
      vertex 5.14912 -1.02422 -2.45
      vertex 4 0 -2.45
    endloop
  endfacet
  facet normal 0 0 1
    outer loop
      vertex 5.14912 -1.02422 -2.45
      vertex 3.92314 -0.780361 -2.45
      vertex 4.85037 -2.00909 -2.45
    endloop
  endfacet
  facet normal 0 0 1
    outer loop
      vertex 5.14912 1.02422 -2.45
      vertex 3.92314 0.780361 -2.45
      vertex 4 0 -2.45
    endloop
  endfacet
  facet normal 0 0 1
    outer loop
      vertex 3.32588 2.22228 -2.45
      vertex 4.36522 2.91674 -2.45
      vertex 3.71231 3.71231 -2.45
    endloop
  endfacet
  facet normal 0 0 1
    outer loop
      vertex 4.85037 2.00909 -2.45
      vertex 3.69552 1.53073 -2.45
      vertex 3.92314 0.780361 -2.45
    endloop
  endfacet
  facet normal 0 0 1
    outer loop
      vertex 4.36522 2.91674 -2.45
      vertex 3.32588 2.22228 -2.45
      vertex 3.69552 1.53073 -2.45
    endloop
  endfacet
  facet normal 0 0 1
    outer loop
      vertex 2.82843 2.82843 -2.45
      vertex 3.71231 3.71231 -2.45
      vertex 2.91674 4.36522 -2.45
    endloop
  endfacet
  facet normal 0 0 1
    outer loop
      vertex 3.71231 3.71231 -2.45
      vertex 2.82843 2.82843 -2.45
      vertex 3.32588 2.22228 -2.45
    endloop
  endfacet
  facet normal 0 0 1
    outer loop
      vertex 2.91674 4.36522 -2.45
      vertex 2.22228 3.32588 -2.45
      vertex 2.82843 2.82843 -2.45
    endloop
  endfacet
  facet normal 0 0 1
    outer loop
      vertex 2.00909 4.85037 -2.45
      vertex 2.22228 3.32588 -2.45
      vertex 2.91674 4.36522 -2.45
    endloop
  endfacet
  facet normal 0 0 1
    outer loop
      vertex 2.00909 4.85037 -2.45
      vertex 1.53073 3.69552 -2.45
      vertex 2.22228 3.32588 -2.45
    endloop
  endfacet
  facet normal 0 0 1
    outer loop
      vertex 1.02422 5.14912 -2.45
      vertex 1.53073 3.69552 -2.45
      vertex 2.00909 4.85037 -2.45
    endloop
  endfacet
  facet normal 0 0 1
    outer loop
      vertex 1.02422 5.14912 -2.45
      vertex 0.780361 3.92314 -2.45
      vertex 1.53073 3.69552 -2.45
    endloop
  endfacet
  facet normal 0 0 1
    outer loop
      vertex 0 5.25 -2.45
      vertex 0.780361 3.92314 -2.45
      vertex 1.02422 5.14912 -2.45
    endloop
  endfacet
  facet normal 0 0 1
    outer loop
      vertex 0 5.25 -2.45
      vertex 0 4 -2.45
      vertex 0.780361 3.92314 -2.45
    endloop
  endfacet
  facet normal 0 0 1
    outer loop
      vertex 0 5.25 -2.45
      vertex -0.780361 3.92314 -2.45
      vertex 0 4 -2.45
    endloop
  endfacet
  facet normal -0 0 1
    outer loop
      vertex -1.02422 5.14912 -2.45
      vertex -0.780361 3.92314 -2.45
      vertex 0 5.25 -2.45
    endloop
  endfacet
  facet normal 0 0 1
    outer loop
      vertex -1.02422 5.14912 -2.45
      vertex -1.53073 3.69552 -2.45
      vertex -0.780361 3.92314 -2.45
    endloop
  endfacet
  facet normal -0 0 1
    outer loop
      vertex -2.00909 4.85037 -2.45
      vertex -1.53073 3.69552 -2.45
      vertex -1.02422 5.14912 -2.45
    endloop
  endfacet
  facet normal 0 0 1
    outer loop
      vertex -2.00909 4.85037 -2.45
      vertex -2.22228 3.32588 -2.45
      vertex -1.53073 3.69552 -2.45
    endloop
  endfacet
  facet normal -0 0 1
    outer loop
      vertex -2.91674 4.36522 -2.45
      vertex -2.22228 3.32588 -2.45
      vertex -2.00909 4.85037 -2.45
    endloop
  endfacet
  facet normal 0 0 1
    outer loop
      vertex -2.22228 3.32588 -2.45
      vertex -2.91674 4.36522 -2.45
      vertex -2.82843 2.82843 -2.45
    endloop
  endfacet
  facet normal -0 0 1
    outer loop
      vertex -3.71231 3.71231 -2.45
      vertex -2.82843 2.82843 -2.45
      vertex -2.91674 4.36522 -2.45
    endloop
  endfacet
  facet normal 0 0 1
    outer loop
      vertex -2.82843 2.82843 -2.45
      vertex -3.71231 3.71231 -2.45
      vertex -3.32588 2.22228 -2.45
    endloop
  endfacet
  facet normal -0 0 1
    outer loop
      vertex -4.36522 2.91674 -2.45
      vertex -3.32588 2.22228 -2.45
      vertex -3.71231 3.71231 -2.45
    endloop
  endfacet
  facet normal 0 0 1
    outer loop
      vertex -3.32588 2.22228 -2.45
      vertex -4.36522 2.91674 -2.45
      vertex -3.69552 1.53073 -2.45
    endloop
  endfacet
  facet normal -0 0 1
    outer loop
      vertex -4.85037 2.00909 -2.45
      vertex -3.69552 1.53073 -2.45
      vertex -4.36522 2.91674 -2.45
    endloop
  endfacet
  facet normal 0 0 1
    outer loop
      vertex -3.69552 1.53073 -2.45
      vertex -4.85037 2.00909 -2.45
      vertex -3.92314 0.780361 -2.45
    endloop
  endfacet
  facet normal -0 0 1
    outer loop
      vertex 3.69552 -1.53073 -2.45
      vertex 4.85037 -2.00909 -2.45
      vertex 3.92314 -0.780361 -2.45
    endloop
  endfacet
  facet normal 0 0 1
    outer loop
      vertex 4.85037 -2.00909 -2.45
      vertex 3.69552 -1.53073 -2.45
      vertex 4.36522 -2.91674 -2.45
    endloop
  endfacet
  facet normal -0 0 1
    outer loop
      vertex 3.32588 -2.22228 -2.45
      vertex 4.36522 -2.91674 -2.45
      vertex 3.69552 -1.53073 -2.45
    endloop
  endfacet
  facet normal 0 0 1
    outer loop
      vertex 4.36522 -2.91674 -2.45
      vertex 3.32588 -2.22228 -2.45
      vertex 3.71231 -3.71231 -2.45
    endloop
  endfacet
  facet normal -0 0 1
    outer loop
      vertex 2.82843 -2.82843 -2.45
      vertex 3.71231 -3.71231 -2.45
      vertex 3.32588 -2.22228 -2.45
    endloop
  endfacet
  facet normal 0 0 1
    outer loop
      vertex 3.71231 -3.71231 -2.45
      vertex 2.82843 -2.82843 -2.45
      vertex 2.91674 -4.36522 -2.45
    endloop
  endfacet
  facet normal -0 0 1
    outer loop
      vertex 2.22228 -3.32588 -2.45
      vertex 2.91674 -4.36522 -2.45
      vertex 2.82843 -2.82843 -2.45
    endloop
  endfacet
  facet normal 0 0 1
    outer loop
      vertex 2.22228 -3.32588 -2.45
      vertex 2.00909 -4.85037 -2.45
      vertex 2.91674 -4.36522 -2.45
    endloop
  endfacet
  facet normal -0 0 1
    outer loop
      vertex 1.53073 -3.69552 -2.45
      vertex 2.00909 -4.85037 -2.45
      vertex 2.22228 -3.32588 -2.45
    endloop
  endfacet
  facet normal 0 0 1
    outer loop
      vertex 1.53073 -3.69552 -2.45
      vertex 1.02422 -5.14912 -2.45
      vertex 2.00909 -4.85037 -2.45
    endloop
  endfacet
  facet normal -0 0 1
    outer loop
      vertex 0.780361 -3.92314 -2.45
      vertex 1.02422 -5.14912 -2.45
      vertex 1.53073 -3.69552 -2.45
    endloop
  endfacet
  facet normal -0 0 1
    outer loop
      vertex 0 -4 -2.45
      vertex 1.02422 -5.14912 -2.45
      vertex 0.780361 -3.92314 -2.45
    endloop
  endfacet
  facet normal 0 0 1
    outer loop
      vertex 0 -4 -2.45
      vertex 0 -5.25 -2.45
      vertex 1.02422 -5.14912 -2.45
    endloop
  endfacet
  facet normal 0 0 1
    outer loop
      vertex -0.780361 -3.92314 -2.45
      vertex 0 -5.25 -2.45
      vertex 0 -4 -2.45
    endloop
  endfacet
  facet normal 0 0 1
    outer loop
      vertex -0.780361 -3.92314 -2.45
      vertex -1.02422 -5.14912 -2.45
      vertex 0 -5.25 -2.45
    endloop
  endfacet
  facet normal 0 0 1
    outer loop
      vertex -1.53073 -3.69552 -2.45
      vertex -1.02422 -5.14912 -2.45
      vertex -0.780361 -3.92314 -2.45
    endloop
  endfacet
  facet normal 0 0 1
    outer loop
      vertex -1.53073 -3.69552 -2.45
      vertex -2.00909 -4.85037 -2.45
      vertex -1.02422 -5.14912 -2.45
    endloop
  endfacet
  facet normal 0 0 1
    outer loop
      vertex -2.22228 -3.32588 -2.45
      vertex -2.00909 -4.85037 -2.45
      vertex -1.53073 -3.69552 -2.45
    endloop
  endfacet
  facet normal 0 0 1
    outer loop
      vertex -2.91674 -4.36522 -2.45
      vertex -2.22228 -3.32588 -2.45
      vertex -2.82843 -2.82843 -2.45
    endloop
  endfacet
  facet normal 0 0 1
    outer loop
      vertex -2.22228 -3.32588 -2.45
      vertex -2.91674 -4.36522 -2.45
      vertex -2.00909 -4.85037 -2.45
    endloop
  endfacet
  facet normal 0 0 1
    outer loop
      vertex -3.71231 -3.71231 -2.45
      vertex -2.82843 -2.82843 -2.45
      vertex -3.32588 -2.22228 -2.45
    endloop
  endfacet
  facet normal 0 0 1
    outer loop
      vertex -4.36522 -2.91674 -2.45
      vertex -3.32588 -2.22228 -2.45
      vertex -3.69552 -1.53073 -2.45
    endloop
  endfacet
  facet normal 0 0 1
    outer loop
      vertex -2.82843 -2.82843 -2.45
      vertex -3.71231 -3.71231 -2.45
      vertex -2.91674 -4.36522 -2.45
    endloop
  endfacet
  facet normal 0 0 1
    outer loop
      vertex -4.85037 -2.00909 -2.45
      vertex -3.69552 -1.53073 -2.45
      vertex -3.92314 -0.780361 -2.45
    endloop
  endfacet
  facet normal 0 0 1
    outer loop
      vertex -5.14912 -1.02422 -2.45
      vertex -3.92314 -0.780361 -2.45
      vertex -4 0 -2.45
    endloop
  endfacet
  facet normal -0 0 1
    outer loop
      vertex -5.14912 1.02422 -2.45
      vertex -3.92314 0.780361 -2.45
      vertex -4.85037 2.00909 -2.45
    endloop
  endfacet
  facet normal 0 0 1
    outer loop
      vertex -3.32588 -2.22228 -2.45
      vertex -4.36522 -2.91674 -2.45
      vertex -3.71231 -3.71231 -2.45
    endloop
  endfacet
  facet normal 0 0 1
    outer loop
      vertex -3.92314 0.780361 -2.45
      vertex -5.14912 1.02422 -2.45
      vertex -4 0 -2.45
    endloop
  endfacet
  facet normal 0 0 1
    outer loop
      vertex -3.69552 -1.53073 -2.45
      vertex -4.85037 -2.00909 -2.45
      vertex -4.36522 -2.91674 -2.45
    endloop
  endfacet
  facet normal 0 0 1
    outer loop
      vertex -5.25 0 -2.45
      vertex -4 0 -2.45
      vertex -5.14912 1.02422 -2.45
    endloop
  endfacet
  facet normal 0 0 1
    outer loop
      vertex -3.92314 -0.780361 -2.45
      vertex -5.14912 -1.02422 -2.45
      vertex -4.85037 -2.00909 -2.45
    endloop
  endfacet
  facet normal 0 0 1
    outer loop
      vertex -4 0 -2.45
      vertex -5.25 0 -2.45
      vertex -5.14912 -1.02422 -2.45
    endloop
  endfacet
  facet normal -0.95694 0.290285 0
    outer loop
      vertex -5.14912 1.02422 -3.95
      vertex -4.85037 2.00909 -2.45
      vertex -4.85037 2.00909 -3.95
    endloop
  endfacet
  facet normal -0.95694 0.290285 0
    outer loop
      vertex -4.85037 2.00909 -2.45
      vertex -5.14912 1.02422 -3.95
      vertex -5.14912 1.02422 -2.45
    endloop
  endfacet
  facet normal 0.290285 -0.95694 0
    outer loop
      vertex 1.02422 -5.14912 -3.95
      vertex 2.00909 -4.85037 -2.45
      vertex 1.02422 -5.14912 -2.45
    endloop
  endfacet
  facet normal 0.290285 -0.95694 0
    outer loop
      vertex 2.00909 -4.85037 -2.45
      vertex 1.02422 -5.14912 -3.95
      vertex 2.00909 -4.85037 -3.95
    endloop
  endfacet
  facet normal 0.77301 -0.634394 0
    outer loop
      vertex 3.71231 -3.71231 -2.45
      vertex 4.36522 -2.91674 -3.95
      vertex 4.36522 -2.91674 -2.45
    endloop
  endfacet
  facet normal 0.77301 -0.634394 0
    outer loop
      vertex 4.36522 -2.91674 -3.95
      vertex 3.71231 -3.71231 -2.45
      vertex 3.71231 -3.71231 -3.95
    endloop
  endfacet
  facet normal 0.95694 -0.290285 0
    outer loop
      vertex 4.85037 -2.00909 -2.45
      vertex 5.14912 -1.02422 -3.95
      vertex 5.14912 -1.02422 -2.45
    endloop
  endfacet
  facet normal 0.95694 -0.290285 0
    outer loop
      vertex 5.14912 -1.02422 -3.95
      vertex 4.85037 -2.00909 -2.45
      vertex 4.85037 -2.00909 -3.95
    endloop
  endfacet
  facet normal -0.471396 -0.881922 0
    outer loop
      vertex -2.91674 -4.36522 -3.95
      vertex -2.00909 -4.85037 -2.45
      vertex -2.91674 -4.36522 -2.45
    endloop
  endfacet
  facet normal -0.471396 -0.881922 -0
    outer loop
      vertex -2.00909 -4.85037 -2.45
      vertex -2.91674 -4.36522 -3.95
      vertex -2.00909 -4.85037 -3.95
    endloop
  endfacet
  facet normal -0.95694 -0.290285 0
    outer loop
      vertex -4.85037 -2.00909 -3.95
      vertex -5.14912 -1.02422 -2.45
      vertex -5.14912 -1.02422 -3.95
    endloop
  endfacet
  facet normal -0.95694 -0.290285 0
    outer loop
      vertex -5.14912 -1.02422 -2.45
      vertex -4.85037 -2.00909 -3.95
      vertex -4.85037 -2.00909 -2.45
    endloop
  endfacet
  facet normal -0.77301 -0.634394 0
    outer loop
      vertex -3.71231 -3.71231 -3.95
      vertex -4.36522 -2.91674 -2.45
      vertex -4.36522 -2.91674 -3.95
    endloop
  endfacet
  facet normal -0.77301 -0.634394 0
    outer loop
      vertex -4.36522 -2.91674 -2.45
      vertex -3.71231 -3.71231 -3.95
      vertex -3.71231 -3.71231 -2.45
    endloop
  endfacet
endsolid OpenSCAD_Model
